<svg data-mode="focus" width="36" height="36" viewBox="0 0 36 36" fill="none" xmlns="http://www.w3.org/2000/svg"
     data-clickable="true" tabindex="0">
  <path fill="white"
    d="M17.9767 28C17.4496 28 17.0039 27.8178 16.6395 27.4535C16.2752 27.0891 16.093 26.6434 16.093 26.1163H19.8605C19.8605 26.6434 19.6783 27.0891 19.314 27.4535C18.9496 27.8178 18.5039 28 17.9767 28ZM14.2093 24.6744V23.2791H21.7442V24.6744H14.2093ZM14.3256 21.8605C13.3023 21.1938 12.4922 20.3605 11.8953 19.3605C11.2984 18.3605 11 17.2326 11 15.9767C11 14.0853 11.6899 12.4496 13.0698 11.0698C14.4496 9.68992 16.0853 9 17.9767 9C19.8682 9 21.5039 9.68992 22.8837 11.0698C24.2636 12.4496 24.9535 14.0853 24.9535 15.9767C24.9535 17.2326 24.6589 18.3605 24.0698 19.3605C23.4806 20.3605 22.6667 21.1938 21.6279 21.8605H14.3256Z"></path>
</svg>
