<svg data-mode="ambient" width="36" height="36" viewBox="0 0 36 36" fill="none" xmlns="http://www.w3.org/2000/svg"
     data-clickable="">
  <path fill="white"
    d="M18.7612 27C17.4629 26.8575 16.224 26.5092 15.0444 25.955C13.8648 25.4008 12.8317 24.6488 11.945 23.6987C11.0583 22.7487 10.3498 21.6206 9.81937 20.3144C9.28896 19.0081 9.01583 17.5396 9 15.9088C10.52 15.9246 11.8817 16.174 13.085 16.6569C14.2883 17.1398 15.3096 17.8444 16.1487 18.7706C16.9879 19.6969 17.6331 20.8488 18.0844 22.2262C18.5356 23.6038 18.7612 25.195 18.7612 27ZM18.4762 19.685C18.0171 18.8933 17.55 18.2442 17.075 17.7375C16.6 17.2308 15.9429 16.7083 15.1037 16.17C15.1671 15.4733 15.2977 14.7569 15.4956 14.0206C15.6935 13.2844 15.9429 12.56 16.2438 11.8475C16.5446 11.135 16.885 10.4462 17.265 9.78125C17.645 9.11625 18.0487 8.5225 18.4762 8C18.9037 8.5225 19.3115 9.11229 19.6994 9.76937C20.0873 10.4265 20.4356 11.1231 20.7444 11.8594C21.0531 12.5956 21.3065 13.3398 21.5044 14.0919C21.7023 14.844 21.8329 15.5763 21.8962 16.2887C21.1996 16.6054 20.5583 17.0725 19.9725 17.69C19.3867 18.3075 18.8879 18.9725 18.4762 19.685ZM20.1862 26.6437C20.1388 25.6304 20.0437 24.6488 19.9012 23.6987C19.7587 22.7487 19.5529 21.9254 19.2837 21.2288C19.9646 19.6929 21.0967 18.4065 22.68 17.3694C24.2633 16.3323 26.0367 15.8296 28 15.8612C27.8733 18.7113 27.1292 21.0427 25.7675 22.8556C24.4058 24.6685 22.5454 25.9312 20.1862 26.6437Z"></path>
</svg>
