<svg xmlns="http://www.w3.org/2000/svg" fill="white" xml:space="preserve" style="enable-background:new 0 0 36 40"
     viewBox="0 0 36 40">
				<path
          d="M30.32 20.03v.54c0 3.3-1.19 6.09-3.59 8.4-2.4 2.31-5.3 3.46-8.73 3.46s-6.33-1.15-8.73-3.46c-2.4-2.31-3.59-5.1-3.59-8.4 0-3.31 1.16-6.1 3.49-8.41 2.24-2.22 4.98-3.37 8.25-3.45l-2.56 2.47 2.54 2.51 7.1-6.84L17.4 0l-2.55 2.46 2.79 2.69c-2.08.04-4.04.44-5.88 1.2-1.94.8-3.63 1.9-5.09 3.3-1.45 1.4-2.59 3.04-3.42 4.91C2.41 16.42 2 18.43 2 20.57c0 2.14.41 4.15 1.25 6.03.83 1.87 1.97 3.51 3.42 4.91 1.45 1.4 3.15 2.5 5.09 3.3C13.7 35.6 15.79 36 18 36s4.3-.4 6.24-1.2c1.94-.8 3.63-1.9 5.09-3.3 1.45-1.4 2.6-3.04 3.42-4.91.83-1.88 1.25-3.89 1.25-6.03v-.54h-3.68z"
          style="fill-rule:evenodd;clip-rule:evenodd;"></path>
			</svg>
