<svg xmlns="http://www.w3.org/2000/svg" fill="white" viewBox="0 0 36 36" style="enable-background:new 0 0 36 36"
     xml:space="preserve"><path d="m34.6 23.3-3.2-2.9-.3-.3.1-.4c.1-.6.1-1.2.1-1.8 0-.6 0-1.2-.1-1.8l-.1-.4.3-.3 3.2-2.9c.3-.3.4-.7.3-1-.3-.8-.7-1.6-1.1-2.4l-.3-.6c-.5-.8-1-1.5-1.5-2.2-.2-.2-.4-.3-.7-.3H31l-4.1 1.3-.4.1-.3-.2c-.8-.6-1.9-1.3-3.1-1.8l-.3-.1-.1-.4-1-3.9c-.1-.4-.4-.7-.7-.7-1-.2-2-.2-3-.2s-2 .1-3 .2c-.4.1-.7.3-.7.7l-.9 4.2-.1.4-.4.1c-1.1.4-2.1 1-3 1.8l-.3.2-.4-.1-4-1.3h-.3c-.3 0-.5.1-.7.3-.6.7-1.1 1.4-1.6 2.2l-.3.5c-.4.8-.8 1.6-1.1 2.4-.1.3 0 .7.3 1l3.2 2.9.3.3-.1.4c-.1.6-.1 1.2-.1 1.8 0 .6 0 1.2.1 1.8l.1.4-.3.3-3.2 2.9c-.3.3-.4.7-.3 1 .3.8.7 1.6 1.1 2.4l.3.6c.4.7 1 1.5 1.5 2.2.2.2.4.3.7.3h.3l4.1-1.3.4-.1.3.2c.9.7 2 1.3 3 1.8l.4.1.1.4.9 4.2c.1.4.4.6.8.7 1 .2 1.9.2 2.9.2s2-.1 3-.2c.4-.1.7-.4.8-.7l.9-4.2.1-.4.3-.1c1.2-.5 2.2-1.1 3.1-1.8l.3-.2.4.1L31 30h.3c.3 0 .5-.1.7-.3.6-.7 1.1-1.4 1.5-2.2l.3-.6c.4-.8.8-1.6 1.1-2.4.1-.6-.1-1-.3-1.2zm-12-.7c-1.2 1.2-2.9 1.9-4.6 1.9s-3.4-.7-4.6-1.9c-1.2-1.2-1.9-2.9-1.9-4.7 0-1.7.7-3.4 1.9-4.6 1.2-1.3 2.9-1.9 4.6-1.9 1.7 0 3.4.7 4.6 1.9 1.2 1.2 1.9 2.9 1.9 4.6.1 1.8-.6 3.5-1.9 4.7z"></path></svg>
